<?xml version="1.0" encoding="utf-8"?>
<svg xmlns="http://www.w3.org/2000/svg" version="2.0">
<polyline points = "
0, 150
10,20.0
20,17.0
30,20.0
40,24.0
50,26.0
60,26.0
70,23.0
80,23.0
90,19.0
100,15.0
110,13.0
120,11.0
130,9.0
140,8.0
150,6.0
160,8.0
170,9.0
180,12.0
190,14.0
200,17.0
210,21.0
220,24.0
230,23.0
240,23.0
250,21.0
260,12.0
270,10.0
280,7.0
290,5.0
300,4.0
310,7.0
320,8.0
330,10.0
340,9.0
350,7.0
360,4.0
370,2.0
380,1.0
390,0.0
400,1.0
410,3.0
420,5.0
430,9.0
440,10.0
450,16.0
460,16.0
470,20.0
480,20.0
480, 150
-1.5, 150
"
style="fill:white;stroke:orange;stroke-width:4" />
</svg>