<?xml version="1.0" encoding="utf-8"?>
<svg xmlns="http://www.w3.org/2000/svg" version="2.0">
<polyline points = "
60, 300
60,170.0
80,167.0
100,170.0
120,174.0
140,176.0
160,176.0
180,173.0
200,173.0
220,169.0
240,165.0
260,163.0
280,161.0
300,159.0
320,158.0
340,156.0
360,158.0
380,159.0
400,162.0
420,164.0
440,167.0
460,171.0
480,174.0
500,173.0
520,173.0
540,171.0
560,162.0
580,160.0
600,157.0
620,155.0
640,154.0
660,157.0
680,158.0
700,160.0
720,159.0
740,157.0
760,154.0
780,152.0
800,151.0
820,150.0
840,151.0
860,153.0
880,155.0
900,159.0
920,160.0
940,166.0
960,166.0
980,170.0
1000,170.0
1000, 300
58.5, 300
"
style="fill:white;stroke:orange;stroke-width:4" />
</svg>