<?xml version="1.0" encoding="utf-8"?><svg width="auto" height="3420" style="overflow:visible " version="1.1" xmlns="http://www.w3.org/2000/svg"><rect x="20" y="20" width="200" height="40" style="fill:white;stroke:black;stroke-width:1" /><text x="30" y="30" font-size="10" style="fill:blue">circuito</text><text x="30" y="40" font-size="8" style="fill:black">xmlns: http://www.uniovi.es</text><text x="30" y="50" font-size="8" style="fill:black">xmlns:xsi: http://www.w3.org/2001/XMLSchema-instance</text><text x="30" y="60" font-size="8" style="fill:black">xsi:schemaLocation: http://www.uniovi.es circuito.xsd</text><rect x="240" y="20" width="200" height="40" style="fill:white;stroke:black;stroke-width:1" /><text x="250" y="30" font-size="10" style="fill:blue">nombre</text><path d="M220 40 C240 40 220 40 240 40" style="fill:transparent;stroke:black" /><rect x="306" y="20" width="137" height="40" style="fill:green;stroke:black;stroke-width:1" /><text x="316" y="30" font-size="8" style="fill:white">"Barcelona-Catalunya"</text><rect x="240" y="70" width="200" height="40" style="fill:white;stroke:black;stroke-width:1" /><text x="250" y="80" font-size="10" style="fill:blue">longitud</text><path d="M220 40 C240 40 220 90 240 90" style="fill:transparent;stroke:black" /><text x="250" y="90" font-size="8" style="fill:black">unidad: m</text><text x="250" y="100" font-size="8" style="fill:black">valor: 4655</text><rect x="240" y="120" width="200" height="40" style="fill:white;stroke:black;stroke-width:1" /><text x="250" y="130" font-size="10" style="fill:blue">anchura</text><path d="M220 40 C240 40 220 140 240 140" style="fill:transparent;stroke:black" /><text x="250" y="140" font-size="8" style="fill:black">unidad: m</text><text x="250" y="150" font-size="8" style="fill:black">valor: 12</text><rect x="240" y="170" width="200" height="40" style="fill:white;stroke:black;stroke-width:1" /><text x="250" y="180" font-size="10" style="fill:blue">fecha</text><path d="M220 40 C240 40 220 190 240 190" style="fill:transparent;stroke:black" /><rect x="306" y="170" width="137" height="40" style="fill:green;stroke:black;stroke-width:1" /><text x="316" y="180" font-size="8" style="fill:white">2024-06-23T13:00:00</text><rect x="240" y="220" width="200" height="40" style="fill:white;stroke:black;stroke-width:1" /><text x="250" y="230" font-size="10" style="fill:blue">vueltas</text><path d="M220 40 C240 40 220 240 240 240" style="fill:transparent;stroke:black" /><rect x="306" y="220" width="137" height="40" style="fill:green;stroke:black;stroke-width:1" /><text x="316" y="230" font-size="8" style="fill:white">66</text><rect x="240" y="270" width="200" height="40" style="fill:white;stroke:black;stroke-width:1" /><text x="250" y="280" font-size="10" style="fill:blue">localidad</text><path d="M220 40 C240 40 220 290 240 290" style="fill:transparent;stroke:black" /><rect x="306" y="270" width="137" height="40" style="fill:green;stroke:black;stroke-width:1" /><text x="316" y="280" font-size="8" style="fill:white">"Barcelona"</text><rect x="240" y="320" width="200" height="40" style="fill:white;stroke:black;stroke-width:1" /><text x="250" y="330" font-size="10" style="fill:blue">pais</text><path d="M220 40 C240 40 220 340 240 340" style="fill:transparent;stroke:black" /><rect x="306" y="320" width="137" height="40" style="fill:green;stroke:black;stroke-width:1" /><text x="316" y="330" font-size="8" style="fill:white">"España"</text><rect x="240" y="370" width="200" height="40" style="fill:white;stroke:black;stroke-width:1" /><text x="250" y="380" font-size="10" style="fill:blue">referencias</text><path d="M220 40 C240 40 220 390 240 390" style="fill:transparent;stroke:black" /><rect x="460" y="370" width="200" height="40" style="fill:white;stroke:black;stroke-width:1" /><text x="470" y="380" font-size="10" style="fill:blue">referencia</text><path d="M440 390 C460 390 440 390 460 390" style="fill:transparent;stroke:black" /><rect x="526" y="370" width="137" height="40" style="fill:green;stroke:black;stroke-width:1" /><text x="536" y="380" font-size="8" style="fill:white">"https://www.formula1.com/en/information/spain-circuit-de-barcelona-catalunya-barcelona.6F5mWJGRuYkQ1XPX48pl8"</text><rect x="460" y="420" width="200" height="40" style="fill:white;stroke:black;stroke-width:1" /><text x="470" y="430" font-size="10" style="fill:blue">referencia</text><path d="M440 390 C460 390 440 440 460 440" style="fill:transparent;stroke:black" /><rect x="526" y="420" width="137" height="40" style="fill:green;stroke:black;stroke-width:1" /><text x="536" y="430" font-size="8" style="fill:white">"https://soymotero.net/competicion/el-circuito-de-cataluna-al-detalle/"</text><rect x="460" y="470" width="200" height="40" style="fill:white;stroke:black;stroke-width:1" /><text x="470" y="480" font-size="10" style="fill:blue">referencia</text><path d="M440 390 C460 390 440 490 460 490" style="fill:transparent;stroke:black" /><rect x="526" y="470" width="137" height="40" style="fill:green;stroke:black;stroke-width:1" /><text x="536" y="480" font-size="8" style="fill:white">"https://veloviewer.com/segment/4064048/Circuit+de+Catalunya+-+F1+Circuit+Full+Lap"</text><rect x="240" y="570" width="200" height="40" style="fill:white;stroke:black;stroke-width:1" /><text x="250" y="580" font-size="10" style="fill:blue">fotos</text><path d="M220 40 C240 40 220 590 240 590" style="fill:transparent;stroke:black" /><rect x="460" y="570" width="200" height="40" style="fill:white;stroke:black;stroke-width:1" /><text x="470" y="580" font-size="10" style="fill:blue">foto</text><path d="M440 590 C460 590 440 590 460 590" style="fill:transparent;stroke:black" /><rect x="526" y="570" width="137" height="40" style="fill:green;stroke:black;stroke-width:1" /><text x="536" y="580" font-size="8" style="fill:white">"Circuit_de_Catalunya.svg"</text><rect x="460" y="620" width="200" height="40" style="fill:white;stroke:black;stroke-width:1" /><text x="470" y="630" font-size="10" style="fill:blue">foto</text><path d="M440 590 C460 590 440 640 460 640" style="fill:transparent;stroke:black" /><rect x="526" y="620" width="137" height="40" style="fill:green;stroke:black;stroke-width:1" /><text x="536" y="630" font-size="8" style="fill:white">"FotoAerea_2021.jpg"</text><rect x="460" y="670" width="200" height="40" style="fill:white;stroke:black;stroke-width:1" /><text x="470" y="680" font-size="10" style="fill:blue">foto</text><path d="M440 590 C460 590 440 690 460 690" style="fill:transparent;stroke:black" /><rect x="526" y="670" width="137" height="40" style="fill:green;stroke:black;stroke-width:1" /><text x="536" y="680" font-size="8" style="fill:white">"mapa-barcenola-2024.webp"</text><rect x="240" y="770" width="200" height="40" style="fill:white;stroke:black;stroke-width:1" /><text x="250" y="780" font-size="10" style="fill:blue">videos</text><path d="M220 40 C240 40 220 790 240 790" style="fill:transparent;stroke:black" /><rect x="460" y="770" width="200" height="40" style="fill:white;stroke:black;stroke-width:1" /><text x="470" y="780" font-size="10" style="fill:blue">video</text><path d="M440 790 C460 790 440 790 460 790" style="fill:transparent;stroke:black" /><rect x="526" y="770" width="137" height="40" style="fill:green;stroke:black;stroke-width:1" /><text x="536" y="780" font-size="8" style="fill:white">"barcenola_2016.mp4"</text><rect x="240" y="870" width="200" height="40" style="fill:white;stroke:black;stroke-width:1" /><text x="250" y="880" font-size="10" style="fill:blue">coord</text><path d="M220 40 C240 40 220 890 240 890" style="fill:transparent;stroke:black" /><text x="250" y="890" font-size="8" style="fill:black">latitud: 41.570582</text><text x="250" y="900" font-size="8" style="fill:black">longitud: 2.259647</text><text x="250" y="910" font-size="8" style="fill:black">altitud: 130</text><rect x="240" y="920" width="200" height="40" style="fill:white;stroke:black;stroke-width:1" /><text x="250" y="930" font-size="10" style="fill:blue">tramos</text><path d="M220 40 C240 40 220 940 240 940" style="fill:transparent;stroke:black" /><rect x="460" y="920" width="200" height="40" style="fill:white;stroke:black;stroke-width:1" /><text x="470" y="930" font-size="10" style="fill:blue">tramo</text><path d="M440 940 C460 940 440 940 460 940" style="fill:transparent;stroke:black" /><text x="470" y="940" font-size="8" style="fill:black">distancia: 0</text><text x="470" y="950" font-size="8" style="fill:black">latitud: 41.570019</text><text x="470" y="960" font-size="8" style="fill:black">longitud: 2.261233</text><text x="470" y="970" font-size="8" style="fill:black">altitud: 130</text><text x="470" y="980" font-size="8" style="fill:black">nsector: 01</text><rect x="460" y="970" width="200" height="40" style="fill:white;stroke:black;stroke-width:1" /><text x="470" y="980" font-size="10" style="fill:blue">tramo</text><path d="M440 940 C460 940 440 990 460 990" style="fill:transparent;stroke:black" /><text x="470" y="990" font-size="8" style="fill:black">distancia: 250</text><text x="470" y="1000" font-size="8" style="fill:black">latitud: 41.567756</text><text x="470" y="1010" font-size="8" style="fill:black">longitud: 2.259325</text><text x="470" y="1020" font-size="8" style="fill:black">altitud: 133</text><text x="470" y="1030" font-size="8" style="fill:black">nsector: 01</text><rect x="460" y="1020" width="200" height="40" style="fill:white;stroke:black;stroke-width:1" /><text x="470" y="1030" font-size="10" style="fill:blue">tramo</text><path d="M440 940 C460 940 440 1040 460 1040" style="fill:transparent;stroke:black" /><text x="470" y="1040" font-size="8" style="fill:black">distancia: 250</text><text x="470" y="1050" font-size="8" style="fill:black">latitud: 41.566496</text><text x="470" y="1060" font-size="8" style="fill:black">longitud: 2.258293</text><text x="470" y="1070" font-size="8" style="fill:black">altitud: 130</text><text x="470" y="1080" font-size="8" style="fill:black">nsector: 01</text><rect x="460" y="1070" width="200" height="40" style="fill:white;stroke:black;stroke-width:1" /><text x="470" y="1080" font-size="10" style="fill:blue">tramo</text><path d="M440 940 C460 940 440 1090 460 1090" style="fill:transparent;stroke:black" /><text x="470" y="1090" font-size="8" style="fill:black">distancia: 250</text><text x="470" y="1100" font-size="8" style="fill:black">latitud: 41.565159</text><text x="470" y="1110" font-size="8" style="fill:black">longitud: 2.257157</text><text x="470" y="1120" font-size="8" style="fill:black">altitud: 126</text><text x="470" y="1130" font-size="8" style="fill:black">nsector: 01</text><rect x="460" y="1120" width="200" height="40" style="fill:white;stroke:black;stroke-width:1" /><text x="470" y="1130" font-size="10" style="fill:blue">tramo</text><path d="M440 940 C460 940 440 1140 460 1140" style="fill:transparent;stroke:black" /><text x="470" y="1140" font-size="8" style="fill:black">distancia: 100</text><text x="470" y="1150" font-size="8" style="fill:black">latitud: 41.564625</text><text x="470" y="1160" font-size="8" style="fill:black">longitud: 2.256459</text><text x="470" y="1170" font-size="8" style="fill:black">altitud: 124</text><text x="470" y="1180" font-size="8" style="fill:black">nsector: 01</text><rect x="460" y="1170" width="200" height="40" style="fill:white;stroke:black;stroke-width:1" /><text x="470" y="1180" font-size="10" style="fill:blue">tramo</text><path d="M440 940 C460 940 440 1190 460 1190" style="fill:transparent;stroke:black" /><text x="470" y="1190" font-size="8" style="fill:black">distancia: 50</text><text x="470" y="1200" font-size="8" style="fill:black">latitud: 41.564747</text><text x="470" y="1210" font-size="8" style="fill:black">longitud: 2.256015</text><text x="470" y="1220" font-size="8" style="fill:black">altitud: 124</text><text x="470" y="1230" font-size="8" style="fill:black">nsector: 01</text><rect x="460" y="1220" width="200" height="40" style="fill:white;stroke:black;stroke-width:1" /><text x="470" y="1230" font-size="10" style="fill:blue">tramo</text><path d="M440 940 C460 940 440 1240 460 1240" style="fill:transparent;stroke:black" /><text x="470" y="1240" font-size="8" style="fill:black">distancia: 50</text><text x="470" y="1250" font-size="8" style="fill:black">latitud: 41.564899</text><text x="470" y="1260" font-size="8" style="fill:black">longitud: 2.255480</text><text x="470" y="1270" font-size="8" style="fill:black">altitud: 127</text><text x="470" y="1280" font-size="8" style="fill:black">nsector: 01</text><rect x="460" y="1270" width="200" height="40" style="fill:white;stroke:black;stroke-width:1" /><text x="470" y="1280" font-size="10" style="fill:blue">tramo</text><path d="M440 940 C460 940 440 1290 460 1290" style="fill:transparent;stroke:black" /><text x="470" y="1290" font-size="8" style="fill:black">distancia: 50</text><text x="470" y="1300" font-size="8" style="fill:black">latitud: 41.564638</text><text x="470" y="1310" font-size="8" style="fill:black">longitud: 2.254808</text><text x="470" y="1320" font-size="8" style="fill:black">altitud: 127</text><text x="470" y="1330" font-size="8" style="fill:black">nsector: 01</text><rect x="460" y="1320" width="200" height="40" style="fill:white;stroke:black;stroke-width:1" /><text x="470" y="1330" font-size="10" style="fill:blue">tramo</text><path d="M440 940 C460 940 440 1340 460 1340" style="fill:transparent;stroke:black" /><text x="470" y="1340" font-size="8" style="fill:black">distancia: 100</text><text x="470" y="1350" font-size="8" style="fill:black">latitud: 41.564315</text><text x="470" y="1360" font-size="8" style="fill:black">longitud: 2.254212</text><text x="470" y="1370" font-size="8" style="fill:black">altitud: 131</text><text x="470" y="1380" font-size="8" style="fill:black">nsector: 01</text><rect x="460" y="1370" width="200" height="40" style="fill:white;stroke:black;stroke-width:1" /><text x="470" y="1380" font-size="10" style="fill:blue">tramo</text><path d="M440 940 C460 940 440 1390 460 1390" style="fill:transparent;stroke:black" /><text x="470" y="1390" font-size="8" style="fill:black">distancia: 100</text><text x="470" y="1400" font-size="8" style="fill:black">latitud: 41.564205</text><text x="470" y="1410" font-size="8" style="fill:black">longitud: 2.253011</text><text x="470" y="1420" font-size="8" style="fill:black">altitud: 135</text><text x="470" y="1430" font-size="8" style="fill:black">nsector: 01</text><rect x="460" y="1420" width="200" height="40" style="fill:white;stroke:black;stroke-width:1" /><text x="470" y="1430" font-size="10" style="fill:blue">tramo</text><path d="M440 940 C460 940 440 1440 460 1440" style="fill:transparent;stroke:black" /><text x="470" y="1440" font-size="8" style="fill:black">distancia: 100</text><text x="470" y="1450" font-size="8" style="fill:black">latitud: 41.565228</text><text x="470" y="1460" font-size="8" style="fill:black">longitud: 2.252077</text><text x="470" y="1470" font-size="8" style="fill:black">altitud: 137</text><text x="470" y="1480" font-size="8" style="fill:black">nsector: 01</text><rect x="460" y="1470" width="200" height="40" style="fill:white;stroke:black;stroke-width:1" /><text x="470" y="1480" font-size="10" style="fill:blue">tramo</text><path d="M440 940 C460 940 440 1490 460 1490" style="fill:transparent;stroke:black" /><text x="470" y="1490" font-size="8" style="fill:black">distancia: 150</text><text x="470" y="1500" font-size="8" style="fill:black">latitud: 41.566601</text><text x="470" y="1510" font-size="8" style="fill:black">longitud: 2.252563</text><text x="470" y="1520" font-size="8" style="fill:black">altitud: 139</text><text x="470" y="1530" font-size="8" style="fill:black">nsector: 01</text><rect x="460" y="1520" width="200" height="40" style="fill:white;stroke:black;stroke-width:1" /><text x="470" y="1530" font-size="10" style="fill:blue">tramo</text><path d="M440 940 C460 940 440 1540 460 1540" style="fill:transparent;stroke:black" /><text x="470" y="1540" font-size="8" style="fill:black">distancia: 200</text><text x="470" y="1550" font-size="8" style="fill:black">latitud: 41.568117</text><text x="470" y="1560" font-size="8" style="fill:black">longitud: 2.253928</text><text x="470" y="1570" font-size="8" style="fill:black">altitud: 141</text><text x="470" y="1580" font-size="8" style="fill:black">nsector: 02</text><rect x="460" y="1570" width="200" height="40" style="fill:white;stroke:black;stroke-width:1" /><text x="470" y="1580" font-size="10" style="fill:blue">tramo</text><path d="M440 940 C460 940 440 1590 460 1590" style="fill:transparent;stroke:black" /><text x="470" y="1590" font-size="8" style="fill:black">distancia: 250</text><text x="470" y="1600" font-size="8" style="fill:black">latitud: 41.568230</text><text x="470" y="1610" font-size="8" style="fill:black">longitud: 2.255081</text><text x="470" y="1620" font-size="8" style="fill:black">altitud: 142</text><text x="470" y="1630" font-size="8" style="fill:black">nsector: 02</text><rect x="460" y="1620" width="200" height="40" style="fill:white;stroke:black;stroke-width:1" /><text x="470" y="1630" font-size="10" style="fill:blue">tramo</text><path d="M440 940 C460 940 440 1640 460 1640" style="fill:transparent;stroke:black" /><text x="470" y="1640" font-size="8" style="fill:black">distancia: 150</text><text x="470" y="1650" font-size="8" style="fill:black">latitud: 41.567315</text><text x="470" y="1660" font-size="8" style="fill:black">longitud: 2.255270</text><text x="470" y="1670" font-size="8" style="fill:black">altitud: 144</text><text x="470" y="1680" font-size="8" style="fill:black">nsector: 02</text><rect x="460" y="1670" width="200" height="40" style="fill:white;stroke:black;stroke-width:1" /><text x="470" y="1680" font-size="10" style="fill:blue">tramo</text><path d="M440 940 C460 940 440 1690 460 1690" style="fill:transparent;stroke:black" /><text x="470" y="1690" font-size="8" style="fill:black">distancia: 100</text><text x="470" y="1700" font-size="8" style="fill:black">latitud: 41.566446</text><text x="470" y="1710" font-size="8" style="fill:black">longitud: 2.254595</text><text x="470" y="1720" font-size="8" style="fill:black">altitud: 142</text><text x="470" y="1730" font-size="8" style="fill:black">nsector: 02</text><rect x="460" y="1720" width="200" height="40" style="fill:white;stroke:black;stroke-width:1" /><text x="470" y="1730" font-size="10" style="fill:blue">tramo</text><path d="M440 940 C460 940 440 1740 460 1740" style="fill:transparent;stroke:black" /><text x="470" y="1740" font-size="8" style="fill:black">distancia: 50</text><text x="470" y="1750" font-size="8" style="fill:black">latitud: 41.565857</text><text x="470" y="1760" font-size="8" style="fill:black">longitud: 2.254111</text><text x="470" y="1770" font-size="8" style="fill:black">altitud: 141</text><text x="470" y="1780" font-size="8" style="fill:black">nsector: 02</text><rect x="460" y="1770" width="200" height="40" style="fill:white;stroke:black;stroke-width:1" /><text x="470" y="1780" font-size="10" style="fill:blue">tramo</text><path d="M440 940 C460 940 440 1790 460 1790" style="fill:transparent;stroke:black" /><text x="470" y="1790" font-size="8" style="fill:black">distancia: 70</text><text x="470" y="1800" font-size="8" style="fill:black">latitud: 41.565361</text><text x="470" y="1810" font-size="8" style="fill:black">longitud: 2.254157</text><text x="470" y="1820" font-size="8" style="fill:black">altitud: 138</text><text x="470" y="1830" font-size="8" style="fill:black">nsector: 02</text><rect x="460" y="1820" width="200" height="40" style="fill:white;stroke:black;stroke-width:1" /><text x="470" y="1830" font-size="10" style="fill:blue">tramo</text><path d="M440 940 C460 940 440 1840 460 1840" style="fill:transparent;stroke:black" /><text x="470" y="1840" font-size="8" style="fill:black">distancia: 70</text><text x="470" y="1850" font-size="8" style="fill:black">latitud: 41.565341</text><text x="470" y="1860" font-size="8" style="fill:black">longitud: 2.254662</text><text x="470" y="1870" font-size="8" style="fill:black">altitud: 136</text><text x="470" y="1880" font-size="8" style="fill:black">nsector: 02</text><rect x="460" y="1870" width="200" height="40" style="fill:white;stroke:black;stroke-width:1" /><text x="470" y="1880" font-size="10" style="fill:blue">tramo</text><path d="M440 940 C460 940 440 1890 460 1890" style="fill:transparent;stroke:black" /><text x="470" y="1890" font-size="8" style="fill:black">distancia: 60</text><text x="470" y="1900" font-size="8" style="fill:black">latitud: 41.565833</text><text x="470" y="1910" font-size="8" style="fill:black">longitud: 2.256120</text><text x="470" y="1920" font-size="8" style="fill:black">altitud: 133</text><text x="470" y="1930" font-size="8" style="fill:black">nsector: 02</text><rect x="460" y="1920" width="200" height="40" style="fill:white;stroke:black;stroke-width:1" /><text x="470" y="1930" font-size="10" style="fill:blue">tramo</text><path d="M440 940 C460 940 440 1940 460 1940" style="fill:transparent;stroke:black" /><text x="470" y="1940" font-size="8" style="fill:black">distancia: 100</text><text x="470" y="1950" font-size="8" style="fill:black">latitud: 41.566344</text><text x="470" y="1960" font-size="8" style="fill:black">longitud: 2.257008</text><text x="470" y="1970" font-size="8" style="fill:black">altitud: 129</text><text x="470" y="1980" font-size="8" style="fill:black">nsector: 02</text><rect x="460" y="1970" width="200" height="40" style="fill:white;stroke:black;stroke-width:1" /><text x="470" y="1980" font-size="10" style="fill:blue">tramo</text><path d="M440 940 C460 940 440 1990 460 1990" style="fill:transparent;stroke:black" /><text x="470" y="1990" font-size="8" style="fill:black">distancia: 150</text><text x="470" y="2000" font-size="8" style="fill:black">latitud: 41.567377</text><text x="470" y="2010" font-size="8" style="fill:black">longitud: 2.257804</text><text x="470" y="2020" font-size="8" style="fill:black">altitud: 126</text><text x="470" y="2030" font-size="8" style="fill:black">nsector: 02</text><rect x="460" y="2020" width="200" height="40" style="fill:white;stroke:black;stroke-width:1" /><text x="470" y="2030" font-size="10" style="fill:blue">tramo</text><path d="M440 940 C460 940 440 2040 460 2040" style="fill:transparent;stroke:black" /><text x="470" y="2040" font-size="8" style="fill:black">distancia: 20</text><text x="470" y="2050" font-size="8" style="fill:black">latitud: 41.567500</text><text x="470" y="2060" font-size="8" style="fill:black">longitud: 2.257775</text><text x="470" y="2070" font-size="8" style="fill:black">altitud: 127</text><text x="470" y="2080" font-size="8" style="fill:black">nsector: 02</text><rect x="460" y="2070" width="200" height="40" style="fill:white;stroke:black;stroke-width:1" /><text x="470" y="2080" font-size="10" style="fill:blue">tramo</text><path d="M440 940 C460 940 440 2090 460 2090" style="fill:transparent;stroke:black" /><text x="470" y="2090" font-size="8" style="fill:black">distancia: 10</text><text x="470" y="2100" font-size="8" style="fill:black">latitud: 41.567708</text><text x="470" y="2110" font-size="8" style="fill:black">longitud: 2.257560</text><text x="470" y="2120" font-size="8" style="fill:black">altitud: 127</text><text x="470" y="2130" font-size="8" style="fill:black">nsector: 02</text><rect x="460" y="2120" width="200" height="40" style="fill:white;stroke:black;stroke-width:1" /><text x="470" y="2130" font-size="10" style="fill:blue">tramo</text><path d="M440 940 C460 940 440 2140 460 2140" style="fill:transparent;stroke:black" /><text x="470" y="2140" font-size="8" style="fill:black">distancia: 70</text><text x="470" y="2150" font-size="8" style="fill:black">latitud: 41.568005</text><text x="470" y="2160" font-size="8" style="fill:black">longitud: 2.257002</text><text x="470" y="2170" font-size="8" style="fill:black">altitud: 129</text><text x="470" y="2180" font-size="8" style="fill:black">nsector: 02</text><rect x="460" y="2170" width="200" height="40" style="fill:white;stroke:black;stroke-width:1" /><text x="470" y="2180" font-size="10" style="fill:blue">tramo</text><path d="M440 940 C460 940 440 2190 460 2190" style="fill:transparent;stroke:black" /><text x="470" y="2190" font-size="8" style="fill:black">distancia: 150</text><text x="470" y="2200" font-size="8" style="fill:black">latitud: 41.568813</text><text x="470" y="2210" font-size="8" style="fill:black">longitud: 2.256567</text><text x="470" y="2220" font-size="8" style="fill:black">altitud: 138</text><text x="470" y="2230" font-size="8" style="fill:black">nsector: 02</text><rect x="460" y="2220" width="200" height="40" style="fill:white;stroke:black;stroke-width:1" /><text x="470" y="2230" font-size="10" style="fill:blue">tramo</text><path d="M440 940 C460 940 440 2240 460 2240" style="fill:transparent;stroke:black" /><text x="470" y="2240" font-size="8" style="fill:black">distancia: 50</text><text x="470" y="2250" font-size="8" style="fill:black">latitud: 41.569522</text><text x="470" y="2260" font-size="8" style="fill:black">longitud: 2.256101</text><text x="470" y="2270" font-size="8" style="fill:black">altitud: 140</text><text x="470" y="2280" font-size="8" style="fill:black">nsector: 02</text><rect x="460" y="2270" width="200" height="40" style="fill:white;stroke:black;stroke-width:1" /><text x="470" y="2280" font-size="10" style="fill:blue">tramo</text><path d="M440 940 C460 940 440 2290 460 2290" style="fill:transparent;stroke:black" /><text x="470" y="2290" font-size="8" style="fill:black">distancia: 50</text><text x="470" y="2300" font-size="8" style="fill:black">latitud: 41.570229</text><text x="470" y="2310" font-size="8" style="fill:black">longitud: 2.256031</text><text x="470" y="2320" font-size="8" style="fill:black">altitud: 143</text><text x="470" y="2330" font-size="8" style="fill:black">nsector: 02</text><rect x="460" y="2320" width="200" height="40" style="fill:white;stroke:black;stroke-width:1" /><text x="470" y="2330" font-size="10" style="fill:blue">tramo</text><path d="M440 940 C460 940 440 2340 460 2340" style="fill:transparent;stroke:black" /><text x="470" y="2340" font-size="8" style="fill:black">distancia: 50</text><text x="470" y="2350" font-size="8" style="fill:black">latitud: 41.570682</text><text x="470" y="2360" font-size="8" style="fill:black">longitud: 2.256573</text><text x="470" y="2370" font-size="8" style="fill:black">altitud: 145</text><text x="470" y="2380" font-size="8" style="fill:black">nsector: 02</text><rect x="460" y="2370" width="200" height="40" style="fill:white;stroke:black;stroke-width:1" /><text x="470" y="2380" font-size="10" style="fill:blue">tramo</text><path d="M440 940 C460 940 440 2390 460 2390" style="fill:transparent;stroke:black" /><text x="470" y="2390" font-size="8" style="fill:black">distancia: 100</text><text x="470" y="2400" font-size="8" style="fill:black">latitud: 41.570955</text><text x="470" y="2410" font-size="8" style="fill:black">longitud: 2.257335</text><text x="470" y="2420" font-size="8" style="fill:black">altitud: 146</text><text x="470" y="2430" font-size="8" style="fill:black">nsector: 02</text><rect x="460" y="2420" width="200" height="40" style="fill:white;stroke:black;stroke-width:1" /><text x="470" y="2430" font-size="10" style="fill:blue">tramo</text><path d="M440 940 C460 940 440 2440 460 2440" style="fill:transparent;stroke:black" /><text x="470" y="2440" font-size="8" style="fill:black">distancia: 250</text><text x="470" y="2450" font-size="8" style="fill:black">latitud: 41.571946</text><text x="470" y="2460" font-size="8" style="fill:black">longitud: 2.259822</text><text x="470" y="2470" font-size="8" style="fill:black">altitud: 143</text><text x="470" y="2480" font-size="8" style="fill:black">nsector: 02</text><rect x="460" y="2470" width="200" height="40" style="fill:white;stroke:black;stroke-width:1" /><text x="470" y="2480" font-size="10" style="fill:blue">tramo</text><path d="M440 940 C460 940 440 2490 460 2490" style="fill:transparent;stroke:black" /><text x="470" y="2490" font-size="8" style="fill:black">distancia: 150</text><text x="470" y="2500" font-size="8" style="fill:black">latitud: 41.572722</text><text x="470" y="2510" font-size="8" style="fill:black">longitud: 2.261853</text><text x="470" y="2520" font-size="8" style="fill:black">altitud: 142</text><text x="470" y="2530" font-size="8" style="fill:black">nsector: 02</text><rect x="460" y="2520" width="200" height="40" style="fill:white;stroke:black;stroke-width:1" /><text x="470" y="2530" font-size="10" style="fill:blue">tramo</text><path d="M440 940 C460 940 440 2540 460 2540" style="fill:transparent;stroke:black" /><text x="470" y="2540" font-size="8" style="fill:black">distancia: 50</text><text x="470" y="2550" font-size="8" style="fill:black">latitud: 41.572968</text><text x="470" y="2560" font-size="8" style="fill:black">longitud: 2.261954</text><text x="470" y="2570" font-size="8" style="fill:black">altitud: 140</text><text x="470" y="2580" font-size="8" style="fill:black">nsector: 03</text><rect x="460" y="2570" width="200" height="40" style="fill:white;stroke:black;stroke-width:1" /><text x="470" y="2580" font-size="10" style="fill:blue">tramo</text><path d="M440 940 C460 940 440 2590 460 2590" style="fill:transparent;stroke:black" /><text x="470" y="2590" font-size="8" style="fill:black">distancia: 50</text><text x="470" y="2600" font-size="8" style="fill:black">latitud: 41.573324</text><text x="470" y="2610" font-size="8" style="fill:black">longitud: 2.261530</text><text x="470" y="2620" font-size="8" style="fill:black">altitud: 141</text><text x="470" y="2630" font-size="8" style="fill:black">nsector: 03</text><rect x="460" y="2620" width="200" height="40" style="fill:white;stroke:black;stroke-width:1" /><text x="470" y="2630" font-size="10" style="fill:blue">tramo</text><path d="M440 940 C460 940 440 2640 460 2640" style="fill:transparent;stroke:black" /><text x="470" y="2640" font-size="8" style="fill:black">distancia: 70</text><text x="470" y="2650" font-size="8" style="fill:black">latitud: 41.573344</text><text x="470" y="2660" font-size="8" style="fill:black">longitud: 2.260801</text><text x="470" y="2670" font-size="8" style="fill:black">altitud: 143</text><text x="470" y="2680" font-size="8" style="fill:black">nsector: 03</text><rect x="460" y="2670" width="200" height="40" style="fill:white;stroke:black;stroke-width:1" /><text x="470" y="2680" font-size="10" style="fill:blue">tramo</text><path d="M440 940 C460 940 440 2690 460 2690" style="fill:transparent;stroke:black" /><text x="470" y="2690" font-size="8" style="fill:black">distancia: 80</text><text x="470" y="2700" font-size="8" style="fill:black">latitud: 41.572901</text><text x="470" y="2710" font-size="8" style="fill:black">longitud: 2.259778</text><text x="470" y="2720" font-size="8" style="fill:black">altitud: 146</text><text x="470" y="2730" font-size="8" style="fill:black">nsector: 03</text><rect x="460" y="2720" width="200" height="40" style="fill:white;stroke:black;stroke-width:1" /><text x="470" y="2730" font-size="10" style="fill:blue">tramo</text><path d="M440 940 C460 940 440 2740 460 2740" style="fill:transparent;stroke:black" /><text x="470" y="2740" font-size="8" style="fill:black">distancia: 80</text><text x="470" y="2750" font-size="8" style="fill:black">latitud: 41.573141</text><text x="470" y="2760" font-size="8" style="fill:black">longitud: 2.258941</text><text x="470" y="2770" font-size="8" style="fill:black">altitud: 148</text><text x="470" y="2780" font-size="8" style="fill:black">nsector: 03</text><rect x="460" y="2770" width="200" height="40" style="fill:white;stroke:black;stroke-width:1" /><text x="470" y="2780" font-size="10" style="fill:blue">tramo</text><path d="M440 940 C460 940 440 2790 460 2790" style="fill:transparent;stroke:black" /><text x="470" y="2790" font-size="8" style="fill:black">distancia: 20</text><text x="470" y="2800" font-size="8" style="fill:black">latitud: 41.573883</text><text x="470" y="2810" font-size="8" style="fill:black">longitud: 2.259323</text><text x="470" y="2820" font-size="8" style="fill:black">altitud: 149</text><text x="470" y="2830" font-size="8" style="fill:black">nsector: 03</text><rect x="460" y="2820" width="200" height="40" style="fill:white;stroke:black;stroke-width:1" /><text x="470" y="2830" font-size="10" style="fill:blue">tramo</text><path d="M440 940 C460 940 440 2840 460 2840" style="fill:transparent;stroke:black" /><text x="470" y="2840" font-size="8" style="fill:black">distancia: 50</text><text x="470" y="2850" font-size="8" style="fill:black">latitud: 41.573936</text><text x="470" y="2860" font-size="8" style="fill:black">longitud: 2.259381</text><text x="470" y="2870" font-size="8" style="fill:black">altitud: 150</text><text x="470" y="2880" font-size="8" style="fill:black">nsector: 03</text><rect x="460" y="2870" width="200" height="40" style="fill:white;stroke:black;stroke-width:1" /><text x="470" y="2880" font-size="10" style="fill:blue">tramo</text><path d="M440 940 C460 940 440 2890 460 2890" style="fill:transparent;stroke:black" /><text x="470" y="2890" font-size="8" style="fill:black">distancia: 100</text><text x="470" y="2900" font-size="8" style="fill:black">latitud: 41.574554</text><text x="470" y="2910" font-size="8" style="fill:black">longitud: 2.260341</text><text x="470" y="2920" font-size="8" style="fill:black">altitud: 149</text><text x="470" y="2930" font-size="8" style="fill:black">nsector: 03</text><rect x="460" y="2920" width="200" height="40" style="fill:white;stroke:black;stroke-width:1" /><text x="470" y="2930" font-size="10" style="fill:blue">tramo</text><path d="M440 940 C460 940 440 2940 460 2940" style="fill:transparent;stroke:black" /><text x="470" y="2940" font-size="8" style="fill:black">distancia: 50</text><text x="470" y="2950" font-size="8" style="fill:black">latitud: 41.574662</text><text x="470" y="2960" font-size="8" style="fill:black">longitud: 2.260625</text><text x="470" y="2970" font-size="8" style="fill:black">altitud: 147</text><text x="470" y="2980" font-size="8" style="fill:black">nsector: 03</text><rect x="460" y="2970" width="200" height="40" style="fill:white;stroke:black;stroke-width:1" /><text x="470" y="2980" font-size="10" style="fill:blue">tramo</text><path d="M440 940 C460 940 440 2990 460 2990" style="fill:transparent;stroke:black" /><text x="470" y="2990" font-size="8" style="fill:black">distancia: 50</text><text x="470" y="3000" font-size="8" style="fill:black">latitud: 41.574512</text><text x="470" y="3010" font-size="8" style="fill:black">longitud: 2.260957</text><text x="470" y="3020" font-size="8" style="fill:black">altitud: 145</text><text x="470" y="3030" font-size="8" style="fill:black">nsector: 03</text><rect x="460" y="3020" width="200" height="40" style="fill:white;stroke:black;stroke-width:1" /><text x="470" y="3030" font-size="10" style="fill:blue">tramo</text><path d="M440 940 C460 940 440 3040 460 3040" style="fill:transparent;stroke:black" /><text x="470" y="3040" font-size="8" style="fill:black">distancia: 50</text><text x="470" y="3050" font-size="8" style="fill:black">latitud: 41.573998</text><text x="470" y="3060" font-size="8" style="fill:black">longitud: 2.261939</text><text x="470" y="3070" font-size="8" style="fill:black">altitud: 141</text><text x="470" y="3080" font-size="8" style="fill:black">nsector: 03</text><rect x="460" y="3070" width="200" height="40" style="fill:white;stroke:black;stroke-width:1" /><text x="470" y="3080" font-size="10" style="fill:blue">tramo</text><path d="M440 940 C460 940 440 3090 460 3090" style="fill:transparent;stroke:black" /><text x="470" y="3090" font-size="8" style="fill:black">distancia: 50</text><text x="470" y="3100" font-size="8" style="fill:black">latitud: 41.574268</text><text x="470" y="3110" font-size="8" style="fill:black">longitud: 2.262346</text><text x="470" y="3120" font-size="8" style="fill:black">altitud: 140</text><text x="470" y="3130" font-size="8" style="fill:black">nsector: 03</text><rect x="460" y="3120" width="200" height="40" style="fill:white;stroke:black;stroke-width:1" /><text x="470" y="3130" font-size="10" style="fill:blue">tramo</text><path d="M440 940 C460 940 440 3140 460 3140" style="fill:transparent;stroke:black" /><text x="470" y="3140" font-size="8" style="fill:black">distancia: 150</text><text x="470" y="3150" font-size="8" style="fill:black">latitud: 41.573667</text><text x="470" y="3160" font-size="8" style="fill:black">longitud: 2.263470</text><text x="470" y="3170" font-size="8" style="fill:black">altitud: 134</text><text x="470" y="3180" font-size="8" style="fill:black">nsector: 03</text><rect x="460" y="3170" width="200" height="40" style="fill:white;stroke:black;stroke-width:1" /><text x="470" y="3180" font-size="10" style="fill:blue">tramo</text><path d="M440 940 C460 940 440 3190 460 3190" style="fill:transparent;stroke:black" /><text x="470" y="3190" font-size="8" style="fill:black">distancia: 50</text><text x="470" y="3200" font-size="8" style="fill:black">latitud: 41.573141</text><text x="470" y="3210" font-size="8" style="fill:black">longitud: 2.263657</text><text x="470" y="3220" font-size="8" style="fill:black">altitud: 134</text><text x="470" y="3230" font-size="8" style="fill:black">nsector: 03</text><rect x="460" y="3220" width="200" height="40" style="fill:white;stroke:black;stroke-width:1" /><text x="470" y="3230" font-size="10" style="fill:blue">tramo</text><path d="M440 940 C460 940 440 3240 460 3240" style="fill:transparent;stroke:black" /><text x="470" y="3240" font-size="8" style="fill:black">distancia: 50</text><text x="470" y="3250" font-size="8" style="fill:black">latitud: 41.572704</text><text x="470" y="3260" font-size="8" style="fill:black">longitud: 2.263517</text><text x="470" y="3270" font-size="8" style="fill:black">altitud: 130</text><text x="470" y="3280" font-size="8" style="fill:black">nsector: 03</text><rect x="460" y="3270" width="200" height="40" style="fill:white;stroke:black;stroke-width:1" /><text x="470" y="3280" font-size="10" style="fill:blue">tramo</text><path d="M440 940 C460 940 440 3290 460 3290" style="fill:transparent;stroke:black" /><text x="470" y="3290" font-size="8" style="fill:black">distancia: 190</text><text x="470" y="3300" font-size="8" style="fill:black">latitud: 41.570033</text><text x="470" y="3310" font-size="8" style="fill:black">longitud: 2.261251</text><text x="470" y="3320" font-size="8" style="fill:black">altitud: 130</text><text x="470" y="3330" font-size="8" style="fill:black">nsector: 03</text></svg>