<?xml version="1.0" encoding="utf-8"?>
<svg xmlns="http://www.w3.org/2000/svg" version="2.0">
<polyline points = "
40, 300
50,279.49
60,280.66
70,281.51
80,280.75
90,278.86
100,275.99
110,274.78
120,273.2
130,271.77
140,270.12
150,265.65999999999997
160,263.97
170,261.76
180,259.73
190,259.71
200,260.73
210,260.62
220,257.54
230,254.31
240,248.35
250,247.56
260,248.89
270,250.62
280,251.36
290,254.84
300,250.23
310,248.55
320,244.06
330,243.39
340,243.19
350,242.29
360,241.6
370,243.9
380,246.27
390,243.29
400,241.38
410,241.41
420,241.23
430,241.44
440,244.15
450,254.68
460,252.94
470,250.62
480,249.26
490,248.97
500,247.62
510,243.92000000000002
520,244.01
530,245.15
540,248.16
550,253.48
560,258.02
570,259.8
570, 300
38.5, 300
"
style="fill:white;stroke:orange;stroke-width:4" />
</svg>